HIERARCHY
ROOT Hips
{
	OFFSET 0.00000 0.00000 0.00000
	CHANNELS 6 Xposition Yposition Zposition Zrotation Yrotation Xrotation 
	JOINT LHipJoint
	{
		OFFSET 0 0 0
		CHANNELS 3 Zrotation Yrotation Xrotation
		JOINT LeftUpLeg
		{
			OFFSET 1.64577 -1.42384 0.94276
			CHANNELS 3 Zrotation Yrotation Xrotation
			JOINT LeftLeg
			{
				OFFSET 2.11538 -5.81197 0.00000
				CHANNELS 3 Zrotation Yrotation Xrotation
				JOINT LeftFoot
				{
					OFFSET 2.36541 -6.49893 0.00000
					CHANNELS 3 Zrotation Yrotation Xrotation
					JOINT LeftToeBase
					{
						OFFSET 0.17759 -0.48793 1.73865
						CHANNELS 3 Zrotation Yrotation Xrotation
						End Site
						{
							OFFSET 0.00000 -0.00000 0.91205
						}
					}
				}
			}
		}
	}
	JOINT RHipJoint
	{
		OFFSET 0 0 0
		CHANNELS 3 Zrotation Yrotation Xrotation
		JOINT RightUpLeg
		{
			OFFSET -1.43750 -1.42384 0.94276
			CHANNELS 3 Zrotation Yrotation Xrotation
			JOINT RightLeg
			{
				OFFSET -2.10480 -5.78291 0.00000
				CHANNELS 3 Zrotation Yrotation Xrotation
				JOINT RightFoot
				{
					OFFSET -2.34880 -6.45329 0.00000
					CHANNELS 3 Zrotation Yrotation Xrotation
					JOINT RightToeBase
					{
						OFFSET -0.22842 -0.62757 1.80469
						CHANNELS 3 Zrotation Yrotation Xrotation
						End Site
						{
							OFFSET -0.00000 -0.00000 0.95886
						}
					}
				}
			}
		}
	}
	JOINT LowerBack
	{
		OFFSET 0 0 0
		CHANNELS 3 Zrotation Yrotation Xrotation
		JOINT Spine
		{
			OFFSET 0.06217 1.93758 -0.49272
			CHANNELS 3 Zrotation Yrotation Xrotation
			JOINT Spine1
			{
				OFFSET -0.03114 2.03621 -0.05830
				CHANNELS 3 Zrotation Yrotation Xrotation
				JOINT Neck
				{
					OFFSET 0 0 0
					CHANNELS 3 Zrotation Yrotation Xrotation
					JOINT Neck1
					{
						OFFSET 0.04421 1.41010 0.26562
						CHANNELS 3 Zrotation Yrotation Xrotation
						JOINT Head
						{
							OFFSET -0.13407 1.43847 0.06181
							CHANNELS 3 Zrotation Yrotation Xrotation
							End Site
							{
								OFFSET -0.04980 1.45844 -0.00689
							}
						}
					}
				}
				JOINT LeftShoulder
				{
					OFFSET 0 0 0
					CHANNELS 3 Zrotation Yrotation Xrotation
					JOINT LeftArm
					{
						OFFSET 2.18382 1.47753 -0.35694
						CHANNELS 3 Zrotation Yrotation Xrotation
						JOINT LeftForeArm
						{
							OFFSET 5.05460 -0.00000 0.00000
							CHANNELS 3 Zrotation Yrotation Xrotation
							JOINT LeftHand
							{
								OFFSET 3.39013 -0.00000 0.00000
								CHANNELS 3 Zrotation Yrotation Xrotation
								JOINT LeftFingerBase
								{
									OFFSET 0 0 0
									CHANNELS 3 Zrotation Yrotation Xrotation
									JOINT LeftHandIndex1
									{
										OFFSET 0.57242 -0.00000 -0.00000
										CHANNELS 3 Zrotation Yrotation Xrotation
										End Site
										{
											OFFSET 0.46150 -0.00000 -0.00000
										}
									}
								}
								JOINT LThumb
								{
									OFFSET 0 0 0
									CHANNELS 3 Zrotation Yrotation Xrotation
									End Site
									{
										OFFSET 0.46855 -0.00000 0.46855
									}
								}
							}
						}
					}
				}
				JOINT RightShoulder
				{
					OFFSET 0 0 0
					CHANNELS 3 Zrotation Yrotation Xrotation
					JOINT RightArm
					{
						OFFSET -2.06033 1.72839 -0.47437
						CHANNELS 3 Zrotation Yrotation Xrotation
						JOINT RightForeArm
						{
							OFFSET -5.07010 -0.00000 0.00000
							CHANNELS 3 Zrotation Yrotation Xrotation
							JOINT RightHand
							{
								OFFSET -3.14957 -0.00000 -0.00000
								CHANNELS 3 Zrotation Yrotation Xrotation
								JOINT RightFingerBase
								{
									OFFSET 0 0 0
									CHANNELS 3 Zrotation Yrotation Xrotation
									JOINT RightHandIndex1
									{
										OFFSET -0.71819 -0.00000 -0.00000
										CHANNELS 3 Zrotation Yrotation Xrotation
										End Site
										{
											OFFSET -0.57902 -0.00000 -0.00000
										}
									}
								}
								JOINT RThumb
								{
									OFFSET 0 0 0
									CHANNELS 3 Zrotation Yrotation Xrotation
									End Site
									{
										OFFSET -0.58786 -0.00000 0.58786
									}
								}
							}
						}
					}
				}
			}
		}
	}
}
MOTION
Frames: 14
Frame Time: 0.0166666
6.4273 15.2986 0.7715 337.0940 -151.1530 -353.5770 0.0000 0.0000 0.0000 -17.9914 -7.5235 -24.1341 6.5546 14.9451 47.1690 0.9835 11.6483 -26.2851 0.0025 -0.3228 -0.8868 0.0000 0.0000 0.0000 12.0196 13.1128 -9.1321 -4.2242 -12.4530 37.3538 -7.8385 -14.0012 -57.9743 -2.8200 -10.3978 30.2746 3.1901 -1.8381 14.4180 -3.1957 -3.0125 8.0099 -4.7262 -1.7401 0.0826 17.2992 12.1821 3.6845 -25.5047 17.9706 3.8335 -9.9539 8.8382 4.5629 0.0000 0.0000 0.0000 -82.9495 13.8923 5.7520 19.0748 -29.5115 -5.0676 -0.0000 0.0000 -0.5176 19.6001 -1.9139 -0.6814 -7.1250 0.0000 -0.0000 -5.3875 27.9347 2.2450 0.0000 0.0000 0.0000 55.8487 -16.9805 44.0218 -146.7375 43.5308 -106.3975 0.0000 -0.0000 -15.5850 -18.7161 16.4692 -5.4863 7.1250 -0.0000 -0.0000 6.0398 -12.7166 4.5883
6.6069 15.1392 0.7407 334.0240 -147.8140 -351.1370 0.0000 0.0000 0.0000 -25.6728 -5.0009 -22.1178 6.8736 15.2245 48.3946 0.7814 14.3635 -27.3668 0.1323 -2.3447 -6.4593 0.0000 0.0000 0.0000 10.1122 12.1274 -10.9863 -4.7719 -13.1222 39.8276 -9.0414 -11.7096 -60.8833 -3.3529 -11.2455 33.1125 -0.6969 -1.6798 13.3413 -3.5690 -3.1882 7.5757 -2.9197 -1.9075 0.3191 18.4217 11.9657 2.7471 -25.3143 17.7233 4.5781 -10.0393 8.6635 4.9761 -0.0000 0.0000 0.0000 -82.6511 13.3552 8.3270 21.2800 -32.1537 -6.1983 -0.0000 0.0000 -0.9327 17.6785 -1.1215 -0.3574 -7.1250 0.0000 -0.0000 -6.9157 28.7742 2.7511 -0.0000 0.0000 0.0000 56.9590 -16.8943 46.8790 -146.2456 43.9020 -106.0575 0.0000 -0.0000 -15.5832 -18.5915 16.3309 -5.4031 7.1250 -0.0000 -0.0000 6.1172 -12.8740 4.6276
6.8204 15.0047 0.7294 339.2460 -143.7520 -353.4890 0.0000 0.0000 0.0000 -24.8793 -0.1543 -21.2951 7.9708 16.0978 52.4576 0.9639 12.0393 -26.4892 0.0016 0.2560 0.7034 0.0000 0.0000 0.0000 16.7361 12.9567 -11.4504 -5.0837 -13.4774 41.1830 -10.7372 -10.5953 -65.5978 -3.9267 -12.0622 35.9525 2.0605 -2.1887 12.6635 -1.8083 -3.3877 7.2480 -2.6252 -1.8961 0.2928 18.1826 11.9536 1.8917 -24.8533 17.6339 5.0772 -9.7931 8.5478 5.1793 -0.0000 0.0000 0.0000 -83.2485 12.8373 10.4833 23.5842 -34.7214 -7.4684 -0.0000 0.0000 -0.5701 16.4397 -0.4494 -0.1326 -7.1250 0.0000 -0.0000 -7.9270 29.4674 3.0282 -0.0000 0.0000 0.0000 57.3248 -16.6443 49.7781 -145.7318 44.2824 -105.7000 0.0000 -0.0000 -16.0667 -18.6841 16.1295 -5.3671 7.1250 -0.0000 -0.0000 6.0473 -13.0729 4.5487
7.0777 14.8991 0.7067 341.6620 -139.7050 -353.8900 0.0000 0.0000 0.0000 -26.0709 3.9763 -20.4914 9.2796 16.9843 57.0520 0.8149 11.5174 -24.8312 0.1187 -2.2216 -6.1185 0.0000 0.0000 0.0000 19.5966 9.8359 -14.2225 -5.1122 -13.5090 41.3052 -10.1062 -13.8994 -64.7040 -2.9734 -10.6519 31.1147 3.3586 -1.7374 11.4942 -0.9118 -2.5438 6.7572 -2.5571 -1.3997 0.4523 17.4787 11.0745 0.2453 -23.8043 16.2746 6.3586 -9.4110 7.7435 5.3663 -0.0000 0.0000 0.0000 -82.4097 11.4535 15.8493 25.4984 -36.7091 -8.5861 -0.0000 -0.0000 0.2908 16.1660 -0.2708 -0.0785 -7.1250 0.0000 -0.0000 -8.1549 29.6496 3.0811 -0.0000 0.0000 0.0000 58.8179 -18.5360 49.9546 -145.7074 44.3003 -105.6830 0.0000 -0.0000 -16.2396 -18.6812 15.8170 -5.2654 7.1250 -0.0000 -0.0000 6.0371 -13.3981 4.4995
7.3418 14.8342 0.6789 342.7590 -135.9430 -353.5700 0.0000 0.0000 0.0000 -27.7520 8.5464 -18.7960 10.2979 17.5740 60.4794 0.9002 10.1711 -24.3205 0.1065 -2.1041 -5.7934 0.0000 0.0000 0.0000 21.1395 6.3329 -16.8599 -4.9772 -13.3581 40.7242 -10.0182 -12.1932 -63.9438 -3.4747 -11.4264 33.7320 3.2886 -1.5388 10.7354 -0.5623 -2.1993 6.1768 -2.2039 -1.2015 0.2907 17.0420 10.6710 -1.0062 -22.6374 15.5588 7.0191 -8.9589 7.3320 5.4774 -0.0000 0.0000 0.0000 -81.8000 10.3187 19.4450 27.5283 -38.6783 -9.8275 -0.0000 -0.0000 1.3801 15.5294 -0.1812 -0.0504 -7.1250 0.0000 -0.0000 -8.6592 29.7362 3.2574 -0.0000 0.0000 0.0000 60.1802 -19.7074 51.0369 -145.4833 44.4640 -105.5262 0.0000 -0.0000 -15.7255 -18.6348 15.7175 -5.2194 7.1250 -0.0000 -0.0000 6.0646 -13.5064 4.5063
7.6056 14.8338 0.6365 344.0670 -131.9860 -352.8390 0.0000 0.0000 0.0000 -28.6969 12.2150 -17.1093 10.9383 17.9048 62.5811 0.7727 9.2711 -22.4405 0.5679 -4.8266 -13.4145 0.0000 0.0000 0.0000 22.9759 3.7671 -19.7262 -4.8096 -13.1661 39.9934 -9.7167 -12.8976 -63.2739 -3.5083 -11.4757 33.9015 3.6496 -1.2539 9.4522 -0.4804 -1.7111 5.4357 -2.3912 -0.9117 0.2390 17.1982 10.1067 -2.4648 -21.3863 14.5696 7.6820 -8.6081 6.8168 5.6243 -0.0000 0.0000 0.0000 -80.2742 8.9181 24.2283 29.0387 -40.0550 -10.7856 -0.0000 -0.0000 0.8793 15.6366 -0.4354 -0.1219 -7.1250 0.0000 -0.0000 -8.5535 29.4762 3.2704 -0.0000 0.0000 0.0000 61.9471 -21.1191 51.2027 -145.3535 44.5581 -105.4352 0.0000 -0.0000 -15.4906 -18.1560 15.8284 -5.1113 7.1250 -0.0000 -0.0000 6.3901 -13.4419 4.7600
7.8853 14.8287 0.6031 345.7250 -128.0750 -352.6570 0.0000 0.0000 0.0000 -29.0297 14.2028 -14.6655 11.0913 17.9795 63.0777 0.8082 5.7396 -20.0115 1.6798 -8.1647 -23.2154 0.0000 0.0000 0.0000 25.0983 1.8580 -22.2578 -4.6741 -13.0071 39.3949 -9.7204 -12.3506 -63.1177 -3.8421 -11.9472 35.5455 3.1652 -1.7557 8.6338 0.3367 -2.3634 4.8145 -1.2278 -1.2407 0.0445 15.9489 10.3312 -2.8976 -20.5913 14.7885 7.5365 -8.0729 6.8945 5.5337 0.0000 0.0000 0.0000 -81.3943 8.6577 25.1772 31.4017 -42.0650 -12.3381 -0.0000 -0.0000 0.8274 15.3535 -0.3395 -0.0932 -7.1250 0.0000 -0.0000 -8.7823 29.5723 3.3394 0.0000 0.0000 0.0000 60.9753 -20.4194 53.2848 -144.8261 44.9359 -105.0640 0.0000 -0.0000 -15.6439 -17.6544 16.0083 -5.0160 7.1250 -0.0000 -0.0000 6.7326 -13.3082 5.0377
8.1609 14.7969 0.5825 346.6590 -124.2160 -352.3150 0.0000 0.0000 0.0000 -29.7171 15.0868 -11.2739 10.4124 17.6353 60.8581 0.8334 1.5657 -17.8791 2.7565 -10.2900 -29.9210 0.0000 0.0000 0.0000 26.6108 -0.5438 -25.2642 -4.7067 -13.0456 39.5396 -9.3869 -12.4342 -62.1555 -3.8457 -11.9522 35.5631 2.9188 -1.8829 7.9906 0.4364 -2.5312 4.5621 -0.9904 -1.3156 0.1414 15.7227 10.1385 -3.6750 -19.6456 14.3131 7.1481 -7.7332 6.6788 5.3633 -0.0000 -0.0000 0.0000 -80.9655 7.4453 27.7680 33.0923 -43.4008 -13.4854 -0.0000 -0.0000 0.2226 15.8897 -0.4715 -0.1342 -7.1250 0.0000 -0.0000 -8.3535 29.4409 3.1995 -0.0000 -0.0000 0.0000 61.5394 -20.6512 53.5317 -144.8361 44.9288 -105.0710 0.0000 -0.0000 -15.6381 -17.7863 15.6474 -4.9452 7.1250 -0.0000 -0.0000 6.6327 -13.6676 4.9113
8.4353 14.7358 0.5685 346.7670 -121.0450 -351.4370 0.0000 0.0000 0.0000 -30.8171 15.5590 -7.5436 8.7473 16.6423 55.2119 0.7767 -0.0690 -16.6351 2.4324 -9.7139 -28.0550 0.0000 0.0000 0.0000 27.5801 -2.5103 -28.3330 -4.8577 -13.2218 40.2044 -9.2406 -11.3072 -61.3631 -4.1452 -12.3511 36.9858 2.0366 -1.9873 7.3247 0.3140 -2.7213 4.4824 -0.6329 -1.4122 0.4482 15.2294 9.8416 -3.9370 -18.5574 13.7302 6.5731 -7.3467 6.4386 5.0040 0.0000 -0.0000 0.0000 -80.5848 6.2580 29.6925 34.5108 -44.4596 -14.4696 -0.0000 0.0000 -0.4727 16.2261 -0.3790 -0.1103 -7.1250 0.0000 -0.0000 -8.0991 29.5386 3.0813 0.0000 -0.0000 0.0000 61.8179 -20.1436 53.8191 -144.3958 45.2388 -104.7592 0.0000 -0.0000 -15.4575 -17.9499 15.4534 -4.9335 7.1250 -0.0000 -0.0000 6.5166 -13.8516 4.7987
8.7254 14.6498 0.5663 346.3400 -118.4220 -349.7810 0.0000 0.0000 0.0000 -32.1670 15.0413 -4.3015 6.5574 14.9475 47.1796 0.9632 2.8177 -19.7583 1.9711 -8.8057 -25.1895 0.0000 0.0000 0.0000 28.4830 -4.1142 -32.4225 -5.1151 -13.5123 41.3176 -8.2716 -13.9053 -59.2838 -3.4034 -11.3211 33.3705 0.4969 -1.9103 6.8762 0.2213 -2.6869 4.2893 0.1159 -1.4117 0.5581 14.7021 9.4814 -4.7070 -17.4796 13.0770 6.5327 -6.9475 6.1213 4.8910 0.0000 -0.0000 0.0000 -80.2336 5.1863 31.6562 35.9868 -45.5040 -15.5130 -0.0000 0.0000 -1.6218 16.4212 -0.3554 -0.1047 -7.1250 0.0000 -0.0000 -7.9488 29.5643 3.0182 0.0000 -0.0000 0.0000 61.8091 -19.7911 53.8217 -144.1967 45.3773 -104.6177 0.0000 -0.0000 -15.3384 -18.2581 15.5734 -5.0615 7.1250 -0.0000 -0.0000 6.3129 -13.6957 4.6677
9.0442 14.5968 0.5759 345.3830 -115.2400 -347.8870 0.0000 0.0000 0.0000 -33.2328 12.8978 -0.7277 4.6136 12.9350 39.1255 1.6460 5.2143 -26.5882 1.2985 -7.2193 -20.3667 0.0000 0.0000 0.0000 28.6004 -4.8181 -35.9744 -5.5357 -13.9628 43.0886 -8.0673 -13.1401 -58.3643 -3.3883 -11.2986 33.2937 -1.0753 -2.0627 6.7071 0.0371 -2.9733 4.4231 0.8102 -1.5839 0.8582 14.3931 9.1349 -5.4411 -16.3909 12.3931 6.0409 -6.5890 5.8100 4.6566 0.0000 -0.0000 0.0000 -79.5653 4.0601 33.5695 37.5716 -46.5635 -16.6538 -0.0000 0.0000 -2.7563 16.6849 0.0529 0.0159 -7.1250 0.0000 -0.0000 -7.7759 29.9885 2.8720 0.0000 -0.0000 0.0000 62.0019 -19.1376 53.5963 -144.0627 45.4700 -104.5222 0.0000 -0.0000 -15.8629 -18.7731 15.6906 -5.2521 7.1250 -0.0000 -0.0000 5.9707 -13.5197 4.4340
9.3853 14.5493 0.6096 345.1340 -112.0290 -346.6670 0.0000 0.0000 0.0000 -33.6291 9.7276 2.1755 3.3480 11.2381 33.0871 2.3429 6.6870 -31.8934 0.8302 -5.8128 -16.2422 0.0000 0.0000 0.0000 29.2904 -6.5679 -40.1097 -6.0715 -14.4973 45.2681 -6.5715 -14.9708 -54.2931 -2.3324 -9.5265 27.4567 -1.8776 -2.1426 6.9295 -0.1820 -3.1302 4.5904 1.0464 -1.6805 0.9431 14.0010 8.6308 -5.8577 -15.3278 11.4970 5.0433 -6.2673 5.4092 4.1928 0.0000 -0.0000 0.0000 -78.8199 3.0898 35.6953 38.6678 -47.2605 -17.4544 -0.0000 0.0000 -3.5080 17.8949 1.0900 0.3519 -7.1250 0.0000 -0.0000 -6.9068 31.0817 2.3647 0.0000 -0.0000 0.0000 62.5632 -18.9393 53.1383 -143.8660 45.6051 -104.3818 0.0000 -0.0000 -15.7523 -19.5008 15.5407 -5.4200 7.1250 -0.0000 -0.0000 5.4750 -13.5976 4.0533
9.7002 14.5576 0.6537 345.2470 -109.8020 -346.2220 0.0000 0.0000 0.0000 -33.5401 6.7986 3.6168 2.6478 10.1018 29.3071 2.8168 7.5855 -35.0420 0.2839 -3.4267 -9.4692 0.0000 0.0000 0.0000 29.7883 -8.3997 -43.7597 -6.6623 -15.0408 47.5854 -4.8792 -16.3906 -49.1120 -1.3916 -7.4634 21.0957 -2.5334 -1.9732 7.2472 -0.4692 -2.9692 5.0588 1.1083 -1.6299 1.2668 13.9149 8.1338 -6.0078 -14.8341 10.6428 3.7020 -6.1848 5.0179 3.6560 0.0000 -0.0000 0.0000 -78.2728 2.0113 37.4477 38.3038 -47.0322 -17.1875 -0.0000 0.0000 -5.2339 20.3797 0.3113 0.1157 -7.1250 0.0000 -0.0000 -4.8890 30.2928 1.7610 0.0000 -0.0000 0.0000 63.4156 -18.5878 52.7039 -143.2183 46.0432 -103.9173 0.0000 -0.0000 -15.4380 -19.9438 15.5090 -5.5418 7.1250 -0.0000 -0.0000 5.1754 -13.5820 3.8313
10.0183 14.5893 0.7030 343.7330 -108.9100 -344.3390 0.0000 0.0000 0.0000 -34.1178 4.8451 3.5086 2.3404 9.5418 27.5052 3.0513 8.3123 -36.6594 0.0991 -2.0303 -5.5893 0.0000 0.0000 0.0000 29.2572 -9.4202 -47.0736 -7.2861 -15.5681 49.9481 -2.9899 -18.0320 -42.6908 -0.4739 -4.4148 12.2466 -3.8924 -1.5563 8.0466 -0.9745 -2.5472 5.2036 1.3496 -1.4519 1.0006 13.5274 7.7575 -5.9997 -13.9655 10.0394 2.9690 -5.9099 4.7520 3.2783 0.0000 0.0000 0.0000 -78.3040 1.5691 37.5520 36.4362 -45.8108 -15.8345 -0.0000 0.0000 -5.2767 20.8193 1.6690 0.6345 -7.1250 0.0000 -0.0000 -4.6190 31.7441 1.5021 0.0000 0.0000 0.0000 64.0625 -18.1433 53.0320 -142.2461 46.6814 -103.2137 0.0000 -0.0000 -15.4615 -19.8774 15.1518 -5.3984 7.1250 -0.0000 -0.0000 5.2047 -13.9638 3.8110
